<svg width="40" height="40" viewBox="0 0 40 40" fill="none" xmlns="http://www.w3.org/2000/svg">
<circle cx="20" cy="20" r="19.75" fill="#A08458" stroke="#A08458" stroke-width="0.5"/>
<path fill-rule="evenodd" clip-rule="evenodd" d="M18.131 21.869C16.961 20.699 16.079 19.389 15.493 18.06C15.37 17.779 15.442 17.45 15.659 17.233L16.478 16.414C17.149 15.743 17.149 14.794 16.563 14.208L15.39 13.035C14.609 12.254 13.343 12.254 12.562 13.035L11.91 13.686C11.169 14.427 10.86 15.496 11.06 16.556C11.554 19.169 13.072 22.03 15.521 24.479C17.97 26.928 20.831 28.446 23.444 28.94C24.504 29.14 25.573 28.831 26.314 28.09L26.965 27.439C27.746 26.658 27.746 25.392 26.965 24.611L25.792 23.438C25.206 22.852 24.256 22.852 23.671 23.438L22.768 24.342C22.551 24.559 22.222 24.632 21.941 24.508C20.612 23.921 19.301 23.038 18.131 21.869Z" stroke="white" stroke-width="1.5" stroke-linecap="round" stroke-linejoin="round"/>
<path d="M29 17V11H23" stroke="white" stroke-width="1.5" stroke-linecap="round" stroke-linejoin="round"/>
<path d="M23 17L29 11" stroke="white" stroke-width="1.5" stroke-linecap="round" stroke-linejoin="round"/>
</svg>
