<svg width="111" height="110" viewBox="0 0 111 110" fill="none" xmlns="http://www.w3.org/2000/svg">
<g clip-path="url(#clip0_342_205)">
<path d="M73.7137 60.1786H60.3804C58.9997 60.1786 57.8804 59.0593 57.8804 57.6786V50" stroke="#A08458" stroke-width="2.4" stroke-linecap="round" stroke-linejoin="round"/>
<circle cx="71.75" cy="73.75" r="3.75" stroke="#A08458" stroke-width="2.4" stroke-linecap="round" stroke-linejoin="round"/>
<path d="M50.5 50H59.0417C62.5827 50 65.9171 51.6672 68.0417 54.5L70.7442 58.1033C71.2099 58.7243 71.8138 59.2283 72.5081 59.5755L77.7361 62.1895C79.43 63.0364 80.5 64.7677 80.5 66.6616V70.625C80.5 72.3509 79.1009 73.75 77.375 73.75H75.5" stroke="#A08458" stroke-width="2.4" stroke-linecap="round" stroke-linejoin="round"/>
<path d="M68 73.75H60.5" stroke="#A08458" stroke-width="2.4" stroke-linecap="round" stroke-linejoin="round"/>
<path fill-rule="evenodd" clip-rule="evenodd" d="M50.4949 77.5001H44.2446C43.5817 77.5001 42.946 77.2365 42.4776 76.7674C42.0092 76.2983 41.7466 75.6622 41.7476 74.9993V68.749C41.7476 68.0861 42.0112 67.4504 42.4803 66.982C42.9494 66.5136 43.5855 66.251 44.2484 66.252H50.4986C51.1615 66.2519 51.7972 66.5155 52.2657 66.9846C52.7341 67.4537 52.9967 68.0899 52.9957 68.7528V75.003C52.9957 75.6659 52.7321 76.3016 52.263 76.77C51.7939 77.2384 51.1578 77.5011 50.4949 77.5001Z" stroke="#A08458" stroke-width="2.4" stroke-linecap="round" stroke-linejoin="round"/>
<path fill-rule="evenodd" clip-rule="evenodd" d="M39.2473 77.5001H33.0008C32.3373 77.5009 31.7008 77.2376 31.2316 76.7685C30.7624 76.2993 30.4992 75.6628 30.5 74.9993V68.749C30.5 68.0861 30.7636 67.4504 31.2327 66.982C31.7018 66.5136 32.3379 66.251 33.0008 66.252H39.2511C39.914 66.2519 40.5497 66.5155 41.0181 66.9847C41.4865 67.4538 41.7491 68.0899 41.7481 68.7528V75.003C41.7481 75.6659 41.4845 76.3016 41.0154 76.77C40.5463 77.2384 39.9102 77.5011 39.2473 77.5001V77.5001Z" stroke="#A08458" stroke-width="2.4" stroke-linecap="round" stroke-linejoin="round"/>
<path fill-rule="evenodd" clip-rule="evenodd" d="M44.8711 66.2519H38.6209C37.9576 66.252 37.3214 65.9886 36.8524 65.5196C36.3834 65.0505 36.12 64.4144 36.1201 63.7511V57.5008C36.12 56.8375 36.3834 56.2013 36.8524 55.7323C37.3214 55.2633 37.9576 54.9998 38.6209 55H44.8711C45.5345 54.9998 46.1706 55.2633 46.6397 55.7323C47.1087 56.2013 47.3721 56.8375 47.372 57.5008V63.7511C47.3728 64.4146 47.1096 65.0511 46.6404 65.5203C46.1712 65.9895 45.5346 66.2527 44.8711 66.2519V66.2519Z" stroke="#A08458" stroke-width="2.4" stroke-linecap="round" stroke-linejoin="round"/>
<path d="M78 50V45.0975C78 42.8278 76.7695 40.7364 74.7854 39.6341L59.1438 30.9439C56.8785 29.6854 54.124 29.6854 51.8588 30.9439L36.2146 39.6356C34.2305 40.7379 33 42.8292 33 45.099V47.5" stroke="#A08458" stroke-width="2.4" stroke-linecap="round" stroke-linejoin="round"/>
<path d="M110.5 55C110.5 42.3718 106.154 30.1282 98.1931 20.3258C90.2317 10.5233 79.1397 3.75903 66.7799 1.16912C54.4201 -1.42079 41.5456 0.321429 30.3187 6.10314C19.0918 11.8849 10.1965 21.3539 5.12677 32.9197C0.0570662 44.4856 -0.878181 57.4438 2.47812 69.6178C5.83442 81.7918 13.2778 92.4401 23.5581 99.774C33.8384 107.108 46.3293 110.681 58.9329 109.893C71.5364 109.105 83.4849 104.003 92.7713 95.4456L91.2742 93.821C82.3608 102.035 70.8923 106.931 58.795 107.688C46.6976 108.444 34.7085 105.015 24.8411 97.9756C14.9738 90.9362 7.82936 80.7157 4.60788 69.0306C1.38639 57.3456 2.28407 44.9079 7.15014 33.8066C12.0162 22.7053 20.5542 13.6167 31.3302 8.06721C42.1061 2.51773 54.4635 0.845495 66.3268 3.33137C78.1901 5.81725 88.8366 12.3098 96.4782 21.7185C104.12 31.1273 108.291 42.879 108.291 55H110.5Z" fill="#A08458"/>
</g>
<defs>
<clipPath id="clip0_342_205">
<rect width="110" height="110" fill="white" transform="translate(0.5)"/>
</clipPath>
</defs>
</svg>
