<svg width="111" height="110" viewBox="0 0 111 110" fill="none" xmlns="http://www.w3.org/2000/svg">
<g clip-path="url(#clip0_342_189)">
<path d="M63.7966 50.8545L53.4266 61.2245L47.2041 55.002" stroke="#A08458" stroke-width="2.4" stroke-linecap="round" stroke-linejoin="round"/>
<path fill-rule="evenodd" clip-rule="evenodd" d="M73.25 39.8032C67.1025 39.3182 61.5075 36.8707 57.0925 33.0832C56.1875 32.3082 54.81 32.3082 53.9075 33.0832C49.4925 36.8682 43.8975 39.3182 37.75 39.8032C36.47 39.9032 35.5 40.9982 35.5 42.2807V53.1057C35.5 64.0232 43.39 74.2607 54.195 77.3182C55.0425 77.5582 55.96 77.5582 56.8075 77.3182C67.61 74.2582 75.5 64.0257 75.5 53.1082V42.2832C75.5 40.9982 74.53 39.9032 73.25 39.8032Z" stroke="#A08458" stroke-width="2.4" stroke-linecap="round" stroke-linejoin="round"/>
<path d="M110.5 55C110.5 42.3718 106.154 30.1282 98.1931 20.3258C90.2317 10.5233 79.1397 3.75903 66.7799 1.16912C54.4201 -1.42079 41.5456 0.321429 30.3187 6.10314C19.0918 11.8849 10.1965 21.3539 5.12677 32.9197C0.0570662 44.4856 -0.878181 57.4438 2.47812 69.6178C5.83442 81.7918 13.2778 92.4401 23.5581 99.774C33.8384 107.108 46.3293 110.681 58.9329 109.893C71.5364 109.105 83.4849 104.003 92.7713 95.4456L91.2742 93.821C82.3608 102.035 70.8923 106.931 58.795 107.688C46.6976 108.444 34.7085 105.015 24.8411 97.9756C14.9738 90.9362 7.82936 80.7157 4.60788 69.0306C1.38639 57.3456 2.28407 44.9079 7.15014 33.8066C12.0162 22.7053 20.5542 13.6167 31.3302 8.06721C42.1061 2.51773 54.4635 0.845495 66.3268 3.33137C78.1901 5.81725 88.8366 12.3098 96.4782 21.7185C104.12 31.1273 108.291 42.879 108.291 55H110.5Z" fill="#A08458"/>
</g>
<defs>
<clipPath id="clip0_342_189">
<rect width="110" height="110" fill="white" transform="translate(0.5)"/>
</clipPath>
</defs>
</svg>
