<svg width="111" height="110" viewBox="0 0 111 110" fill="none" xmlns="http://www.w3.org/2000/svg">
<g clip-path="url(#clip0_342_192)">
<path d="M48 77.5H38C35.2386 77.5 33 75.2614 33 72.5V48.0011C33 45.2314 34.5264 42.6871 36.9702 41.3836L51.9702 33.3825C54.1763 32.2058 56.8237 32.2058 59.0298 33.3825L74.0298 41.3836C76.4736 42.6871 78 45.2314 78 48.0011V50" stroke="#A08458" stroke-width="2.4" stroke-linecap="round" stroke-linejoin="round"/>
<path d="M50.5 47.5H60.5" stroke="#A08458" stroke-width="2.4" stroke-linecap="round" stroke-linejoin="round"/>
<path d="M60.5 57.5H45.5C44.1193 57.5 43 58.6193 43 60V77.5" stroke="#A08458" stroke-width="2.4" stroke-linecap="round" stroke-linejoin="round"/>
<path d="M50.5 67.5H43" stroke="#A08458" stroke-width="2.4" stroke-linecap="round" stroke-linejoin="round"/>
<path fill-rule="evenodd" clip-rule="evenodd" d="M63.625 80H58.625C56.8991 80 55.5 78.6009 55.5 76.875V71.875C55.5 70.1491 56.8991 68.75 58.625 68.75H63.625C65.3509 68.75 66.75 70.1491 66.75 71.875V76.875C66.75 77.7038 66.4208 78.4987 65.8347 79.0847C65.2487 79.6708 64.4538 80 63.625 80V80Z" stroke="#A08458" stroke-width="2.4" stroke-linecap="round" stroke-linejoin="round"/>
<path fill-rule="evenodd" clip-rule="evenodd" d="M74.875 80H69.875C68.1491 80 66.75 78.6009 66.75 76.875V71.875C66.75 70.1491 68.1491 68.75 69.875 68.75H74.875C76.6009 68.75 78 70.1491 78 71.875V76.875C78 78.6009 76.6009 80 74.875 80Z" stroke="#A08458" stroke-width="2.4" stroke-linecap="round" stroke-linejoin="round"/>
<path fill-rule="evenodd" clip-rule="evenodd" d="M74.875 68.75H69.875C68.1491 68.75 66.75 67.3509 66.75 65.625V60.625C66.75 58.8991 68.1491 57.5 69.875 57.5H74.875C76.6009 57.5 78 58.8991 78 60.625V65.625C78 67.3509 76.6009 68.75 74.875 68.75Z" stroke="#A08458" stroke-width="2.4" stroke-linecap="round" stroke-linejoin="round"/>
<path d="M110.5 55C110.5 42.3718 106.154 30.1282 98.1931 20.3258C90.2317 10.5233 79.1397 3.75903 66.7799 1.16912C54.4201 -1.42079 41.5456 0.321429 30.3187 6.10314C19.0918 11.8849 10.1965 21.3539 5.12677 32.9197C0.0570662 44.4856 -0.878181 57.4438 2.47812 69.6178C5.83442 81.7918 13.2778 92.4401 23.5581 99.774C33.8384 107.108 46.3293 110.681 58.9329 109.893C71.5364 109.105 83.4849 104.003 92.7713 95.4456L91.2742 93.821C82.3608 102.035 70.8923 106.931 58.795 107.688C46.6976 108.444 34.7085 105.015 24.8411 97.9756C14.9738 90.9362 7.82936 80.7157 4.60788 69.0306C1.38639 57.3456 2.28407 44.9079 7.15014 33.8066C12.0162 22.7053 20.5542 13.6167 31.3302 8.06721C42.1061 2.51773 54.4635 0.845495 66.3268 3.33137C78.1901 5.81725 88.8366 12.3098 96.4782 21.7185C104.12 31.1273 108.291 42.879 108.291 55H110.5Z" fill="#A08458"/>
</g>
<defs>
<clipPath id="clip0_342_192">
<rect width="110" height="110" fill="white" transform="translate(0.5)"/>
</clipPath>
</defs>
</svg>
